HIERARCHY
ROOT Hips
{
	OFFSET -3.958830 18.904000 13.208200
	CHANNELS 6 Xposition Yposition Zposition Zrotation Yrotation Xrotation 
	JOINT LHipJoint
	{
		OFFSET 0.000000 0.000000 0.000000
		CHANNELS 3 Zrotation Yrotation Xrotation
		JOINT LeftUpLeg
		{
			OFFSET 1.800000 -1.400000 0.085000
			CHANNELS 3 Zrotation Yrotation Xrotation
			JOINT LeftLeg
			{
				OFFSET 2.215000 -6.000000 0.000000
				CHANNELS 3 Zrotation Yrotation Xrotation
				JOINT LeftFoot
				{
					OFFSET 2.500000 -6.900000 0.000000
					CHANNELS 3 Zrotation Yrotation Xrotation
					JOINT LeftToeBase
					{
						OFFSET 0.200000 -0.500000 1.950000
						CHANNELS 3 Zrotation Yrotation Xrotation
						End Site
						{
							OFFSET 0.000000 0.000000 0.000000
						}
					}
				}
			}
		}
	}
	JOINT RHipJoint
	{
		OFFSET 0.000000 0.000000 0.000000
		CHANNELS 3 Zrotation Yrotation Xrotation
		JOINT RightUpLeg
		{
			OFFSET -1.800000 -1.400000 0.085000
			CHANNELS 3 Zrotation Yrotation Xrotation
			JOINT RightLeg
			{
				OFFSET -2.215000 -6.000000 0.000000
				CHANNELS 3 Zrotation Yrotation Xrotation
				JOINT RightFoot
				{
					OFFSET -2.500000 -6.900000 0.000000
					CHANNELS 3 Zrotation Yrotation Xrotation
					JOINT RightToeBase
					{
						OFFSET -0.200000 -0.500000 1.950000
						CHANNELS 3 Zrotation Yrotation Xrotation
						End Site
						{
							OFFSET 0.000000 0.000000 0.000000
						}
					}
				}
			}
		}
	}
	JOINT LowerBack
	{
		OFFSET 0.000000 0.000000 0.000000
		CHANNELS 3 Zrotation Yrotation Xrotation
		JOINT Spine
		{
			OFFSET -0.087000 1.940000 -0.288900
			CHANNELS 3 Zrotation Yrotation Xrotation
			JOINT Spine1
			{
				OFFSET 0.000000 1.950000 0.060000
				CHANNELS 3 Zrotation Yrotation Xrotation
				JOINT Neck
				{
					OFFSET 0.000000 0.000000 0.000000
					CHANNELS 3 Zrotation Yrotation Xrotation
					JOINT Neck1
					{
						OFFSET 0.000000 1.600000 0.340000
						CHANNELS 3 Zrotation Yrotation Xrotation
						JOINT Head
						{
							OFFSET 0.000000 1.667000 -0.240000
							CHANNELS 3 Zrotation Yrotation Xrotation
							End Site
							{
								OFFSET 0.000000 0.000000 0.000000
							}
						}
					}
				}
				JOINT LeftShoulder
				{
					OFFSET 0.000000 0.000000 0.000000
					CHANNELS 3 Zrotation Yrotation Xrotation
					JOINT LeftArm
					{
						OFFSET 2.700000 1.550000 -0.730000
						CHANNELS 3 Zrotation Yrotation Xrotation
						JOINT LeftForeArm
						{
							OFFSET 5.450000 0.000000 0.000000
							CHANNELS 3 Zrotation Yrotation Xrotation
							JOINT LeftHand
							{
								OFFSET 3.450000 0.000000 0.000000
								CHANNELS 3 Zrotation Yrotation Xrotation
								JOINT LeftHandIndex1
								{
									OFFSET 0.750000 0.000000 0.000000
									CHANNELS 3 Zrotation Yrotation Xrotation
									End Site
									{
										OFFSET 0.000000 0.000000 0.000000
									}
								}
							}
						}
					}
				}
				JOINT RightShoulder
				{
					OFFSET 0.000000 0.000000 0.000000
					CHANNELS 3 Zrotation Yrotation Xrotation
					JOINT RightArm
					{
						OFFSET -2.700000 1.550000 -0.730000
						CHANNELS 3 Zrotation Yrotation Xrotation
						JOINT RightForeArm
						{
							OFFSET -5.450000 0.000000 0.000000
							CHANNELS 3 Zrotation Yrotation Xrotation
							JOINT RightHand
							{
								OFFSET -3.450000 0.000000 0.000000
								CHANNELS 3 Zrotation Yrotation Xrotation
								JOINT RightHandIndex1
								{
									OFFSET -0.750000 0.000000 0.000000
									CHANNELS 3 Zrotation Yrotation Xrotation
									End Site
									{
										OFFSET 0.000000 0.000000 0.000000
									}
								}
							}
						}
					}
				}
			}
		}
	}
}
MOTION
Frames: 8
Frame Time: 0.016667
-2.756740 17.506220 -11.980340 -164.113417 -56.662500 168.071059 -15.514496 15.399000 4.590920 15.663345 -2.343621 -23.583027 -8.529683 5.102434 6.694525 0.289855 3.304808 3.320615 0.677480 0.407670 0.749680 17.410812 -10.242546 2.047285 -11.530886 -0.507559 -5.754916 3.004598 -6.103899 21.465841 -0.610101 -3.433876 3.281862 -0.129990 -0.316270 0.156250 -2.249112 -7.878156 -7.603799 21.997912 -2.886885 16.929842 -4.962228 2.600544 -33.510528 8.017089 -5.579172 -10.600600 -30.947617 38.046567 40.295659 12.721310 27.161200 4.457210 -8.533036 20.402338 -2.328955 -11.132828 13.640180 0.913628 28.463222 -46.334328 -5.997073 -3.121133 3.149831 0.730060 -0.365050 0.513910 0.194020 0.657592 -18.044924 6.548917 49.584561 -48.479796 -20.092545 -15.499719 45.071306 -0.456263 2.745844 -1.873458 0.167210 -0.258150 -0.625210 -0.154570 
-2.961420 17.533000 -11.867360 -162.141993 -58.298618 166.536498 -15.451608 15.606126 4.507604 13.506300 -2.308819 -22.975483 -7.352146 4.762501 6.393463 0.268572 3.043780 3.443029 0.683750 0.427170 0.741840 17.405954 -10.302948 2.138656 -12.180810 0.055342 -7.190472 4.739462 -6.944278 23.680292 -0.620444 -3.679378 3.193502 -0.114970 -0.291750 0.166250 -2.133952 -8.021491 -7.626494 22.401908 -1.897557 15.866277 -3.887220 4.087044 -34.350826 7.802177 -5.426753 -10.277027 -28.689401 37.388627 43.183707 14.001500 26.401600 5.659790 -7.885828 21.825073 -2.613548 -11.036945 13.766033 1.233444 27.219679 -42.240329 -4.337710 -3.171491 3.166800 0.710760 -0.334970 0.511370 0.212610 0.315850 -18.722552 6.522566 44.114553 -44.371480 -15.736455 -15.606335 41.912044 0.157797 2.866171 -1.896441 0.169720 -0.252550 -0.635950 -0.144340 
-3.161100 17.565970 -11.749540 -159.144858 -59.010603 164.444901 -15.378673 15.578436 4.383370 12.612908 -2.173802 -22.675577 -6.707552 4.634328 6.191616 0.254079 2.934241 3.519757 0.677000 0.418320 0.739650 17.495719 -10.242042 2.225275 -12.391599 0.974269 -9.459698 6.932762 -7.927221 25.976208 -0.631899 -3.954969 3.096550 -0.109470 -0.258430 0.121350 -2.266798 -7.884903 -7.566227 25.446927 -2.066417 14.681684 -5.393389 4.430724 -34.930072 7.429776 -5.708084 -10.612465 -27.679395 37.055798 43.935783 15.275590 25.780700 7.097530 -7.334958 23.329549 -2.228092 -8.891936 17.689273 2.111459 27.140214 -42.846009 -4.059126 -3.212369 3.198520 0.701300 -0.330110 0.480960 0.225020 -0.233975 -19.346872 5.962927 43.325049 -36.612188 -12.743700 -20.827631 38.500685 0.117484 2.938427 -1.764571 0.138830 -0.209000 -0.644390 -0.142030 
-3.334710 17.572680 -11.613750 -155.960992 -60.738046 160.966157 -15.268025 15.610852 4.279648 11.685202 -2.052537 -22.031820 -6.582209 4.661245 6.752801 0.414171 2.778967 3.547725 0.759880 0.564550 0.717300 17.593792 -10.166853 2.381719 -13.270439 1.791908 -11.135115 9.765898 -9.495844 28.714591 -0.751673 -4.533478 2.877957 -0.090680 -0.317100 0.194600 -2.141166 -7.995723 -7.592010 26.587629 -1.676488 15.111209 -5.360926 5.098087 -34.543084 7.629498 -6.070377 -10.865818 -27.167127 35.782824 44.519658 14.463770 25.104160 7.576690 -6.462564 25.602087 -2.034884 -9.496498 20.095359 2.428203 26.774005 -48.099629 -4.841441 -3.175379 3.469413 0.609960 -0.342340 0.551880 0.306540 -1.751641 -20.233510 6.078952 40.858135 -32.186819 -11.401313 -14.544012 40.696612 1.482925 2.875368 -1.989423 0.284990 -0.322760 -0.741270 -0.050530 
-3.463150 17.550750 -11.488940 -155.217191 -63.056185 160.381384 -15.236024 15.538515 4.195082 9.310836 -2.264167 -21.982175 -6.811582 4.678339 7.284451 0.423913 2.662837 3.617646 0.683930 0.478670 0.626370 17.633222 -10.038188 2.619242 -14.850032 3.254533 -14.207149 12.255620 -11.030904 31.910553 -0.769321 -5.200627 2.654942 -0.126420 -0.266280 0.160050 -2.079838 -7.887157 -7.795932 24.904637 -0.682218 15.378020 -3.752649 5.801480 -34.942305 7.247234 -6.685107 -10.743233 -25.926722 33.907176 43.548670 14.830430 23.687340 10.720220 -4.952939 28.426549 -1.416049 -9.583692 22.701119 3.151226 27.209698 -52.509144 -5.796808 -3.270601 3.625775 0.559610 -0.306140 0.467770 0.308260 -2.547034 -21.774084 5.553071 39.703972 -27.304763 -9.685248 -11.345562 44.436627 2.751987 2.793970 -2.129068 0.255470 -0.341370 -0.710840 -0.037910 
-3.594720 17.528540 -11.355360 -148.400070 -67.673642 153.274449 -15.022452 15.388989 4.135205 7.426243 -2.506283 -22.363643 -6.321324 4.562911 8.097596 0.450278 2.498477 3.694684 0.640120 0.392200 0.606570 17.833266 -10.021840 2.920232 -15.209264 4.127643 -15.012988 15.365357 -12.762666 33.774425 -0.870448 -5.900125 2.440100 -0.191530 -0.262360 0.181850 -1.773867 -7.945402 -8.016104 23.511302 0.684446 15.374009 -1.207362 7.524142 -33.696132 7.251652 -7.053570 -10.918578 -25.226607 30.154439 44.715473 11.882180 21.692080 12.122580 -3.449685 30.373257 -1.034033 -15.135844 23.364928 1.907679 24.386133 -57.033350 -5.877290 -3.249099 3.738647 0.522820 -0.278210 0.434490 0.307440 -4.232735 -21.880712 5.556107 40.030356 -24.067638 -8.758741 -12.362140 45.178450 2.917115 2.791323 -2.139722 0.274330 -0.390990 -0.704310 -0.033500 
-3.715530 17.535280 -11.224300 -141.594567 -71.546514 145.201473 -14.864560 15.287148 4.029065 5.951810 -2.584295 -21.405780 -5.772769 4.744737 10.387060 0.391511 2.510068 3.671865 0.608890 0.319170 0.663130 17.932478 -10.222315 3.152885 -16.050264 4.223150 -14.572936 17.984972 -13.389289 32.098188 -0.896360 -6.009268 2.386982 -0.228270 -0.330700 0.182350 -1.533528 -7.908435 -8.213817 22.208216 2.271020 15.496709 -0.321640 9.308880 -32.623706 7.688403 -6.225741 -11.495563 -23.431742 26.571002 50.770569 8.121510 20.525560 10.659870 -4.539006 28.901515 -0.610387 -17.676561 24.157473 1.355536 24.828766 -63.073108 -7.946418 -3.201761 3.660442 0.568490 -0.288450 0.448290 0.238690 -4.258472 -19.477575 5.563822 40.125504 -21.885588 -8.222567 -18.359015 35.207123 1.550949 2.905074 -1.798413 0.257490 -0.404930 -0.672100 -0.097420 
-3.825840 17.535610 -11.106550 -134.050282 -74.605990 137.114121 -14.818715 15.062231 3.936209 4.575354 -2.688741 -20.745972 -5.654064 4.859679 11.736894 0.394356 2.479377 3.657057 0.630780 0.339460 0.708180 17.971099 -10.348616 3.351408 -16.467520 4.631713 -15.178122 20.089313 -13.387088 30.087920 -0.899870 -5.940531 2.383483 -0.229970 -0.390670 0.201650 -1.584995 -7.648023 -8.335355 21.701799 2.763810 15.498492 -0.429050 9.779289 -31.937550 7.224944 -5.864367 -12.351706 -21.771580 24.471166 53.964553 6.289860 19.825920 8.619890 -3.989718 28.102430 0.370729 -19.659483 23.404009 2.083580 24.513877 -68.462097 -9.321506 -3.145797 3.721693 0.562580 -0.307570 0.473500 0.206590 -4.505775 -18.131428 4.650423 41.762738 -15.686781 -6.910574 -18.366073 35.047155 1.494350 2.843270 -1.692875 0.296600 -0.437960 -0.675450 -0.110200 
